<?xml version="1.0" standalone="no"?>
<!DOCTYPE svg PUBLIC "-//W3C//DTD SVG 20010904//EN"
 "http://www.w3.org/TR/2001/REC-SVG-20010904/DTD/svg10.dtd">
<svg version="1.0" xmlns="http://www.w3.org/2000/svg"
 width="700.000000pt" height="700.000000pt" viewBox="0 0 700.000000 700.000000"
 preserveAspectRatio="xMidYMid meet">
<g transform="translate(0.000000,700.000000) scale(0.100000,-0.100000)"
fill="#000000" stroke="none">
<path d="M1546 6263 c-1 -1 -132 -3 -292 -4 -301 -1 -353 -7 -484 -50 -265
-88 -483 -296 -578 -550 -52 -140 -54 -172 -53 -784 2 -2183 1 -3783 -3 -3802
-2 -12 -7 -49 -11 -82 -3 -33 -7 -68 -9 -78 -2 -10 -7 -45 -12 -78 -4 -33 -8
-62 -9 -65 0 -3 -5 -36 -10 -75 -5 -38 -9 -72 -10 -75 -1 -3 -5 -34 -10 -70
-12 -98 -12 -96 -30 -225 -9 -66 -19 -123 -21 -127 -15 -24 16 -17 686 162
107 29 200 53 205 54 6 2 30 8 55 15 25 7 140 37 255 68 116 30 282 75 370 98
l160 43 2175 0 c1196 0 2201 3 2234 7 210 21 414 120 572 279 118 119 188 237
236 403 l23 78 2 2025 2 2025 -25 99 c-23 94 -87 247 -116 277 -7 8 -26 33
-41 56 -97 142 -326 296 -512 342 -27 7 -59 15 -70 18 -11 3 -94 7 -185 10
-165 4 -4490 10 -4494 6z"/>
</g>
</svg>
