<svg height="24" width="24" xmlns="http://www.w3.org/2000/svg"><path style="color:#000;fill:#a00;fill-opacity:1;stroke-width:.0919748;stroke-linecap:round;stroke-linejoin:round;-inkscape-stroke:none" d="M12.117 3.405a1.275 1.275 0 0 0-.662.185L4.81 7.628a1.275 1.275 0 0 0-.428 1.75 1.275 1.275 0 0 0 1.751.428l5.985-3.635 5.985 3.635a1.275 1.275 0 0 0 1.75-.427 1.275 1.275 0 0 0-.427-1.751L12.779 3.59a1.275 1.275 0 0 0-.662-.185Z"/><path style="color:#000;fill:#c60000;fill-opacity:1;stroke:none;stroke-width:.0919748;stroke-linecap:round;stroke-linejoin:round;-inkscape-stroke:none" d="M12.117 8.54a1.275 1.275 0 0 0-.662.185L4.81 12.762a1.275 1.275 0 0 0-.428 1.75 1.275 1.275 0 0 0 1.751.429l5.985-3.636 5.985 3.636a1.275 1.275 0 0 0 1.75-.428 1.275 1.275 0 0 0-.427-1.751L12.78 8.725a1.275 1.275 0 0 0-.662-.186Z"/><path style="color:#000;fill:#de0000;fill-opacity:1;stroke:none;stroke-width:.0919748;stroke-linecap:round;stroke-linejoin:round;-inkscape-stroke:none" d="M12.195 13.807a1.275 1.275 0 0 0-.662.185l-6.646 4.037a1.275 1.275 0 0 0-.428 1.751 1.275 1.275 0 0 0 1.751.428l5.985-3.635 5.985 3.635a1.275 1.275 0 0 0 1.75-.428 1.275 1.275 0 0 0-.427-1.75l-6.646-4.038a1.275 1.275 0 0 0-.662-.185z"/></svg>