<svg height="24" width="24" xmlns="http://www.w3.org/2000/svg"><path style="color:#000;fill:#999;fill-opacity:1;stroke-width:.0919748;stroke-linecap:round;stroke-linejoin:round;-inkscape-stroke:none" d="M12.173 17.774a1.275 1.275 0 0 0 .661-.185l6.647-4.037a1.275 1.275 0 0 0 .427-1.751 1.275 1.275 0 0 0-1.75-.428l-5.985 3.635-5.985-3.635a1.275 1.275 0 0 0-1.751.428 1.275 1.275 0 0 0 .428 1.751l6.646 4.037a1.275 1.275 0 0 0 .662.185z"/><path style="color:#000;fill:#b3b3b3;fill-opacity:1;stroke:none;stroke-width:.0919748;stroke-linecap:round;stroke-linejoin:round;-inkscape-stroke:none" d="M12.173 12.64a1.275 1.275 0 0 0 .661-.185l6.647-4.037a1.275 1.275 0 0 0 .427-1.751 1.275 1.275 0 0 0-1.75-.428l-5.985 3.635L6.188 6.24a1.275 1.275 0 0 0-1.751.428 1.275 1.275 0 0 0 .428 1.75l6.646 4.038a1.275 1.275 0 0 0 .662.185z"/></svg>