<svg height="24" width="24" xmlns="http://www.w3.org/2000/svg"><path d="M4.882 16.057c-.33-.114-.636-.42-.795-.797-.084-.202-.1-.292-.1-.578-.001-.302.011-.366.116-.6a1.44 1.44 0 01.652-.704l.205-.106h14.077l.205.106c.756.39 1.01 1.376.548 2.128a1.217 1.217 0 01-.588.515l-.201.091-6.985-.001c-5.641-.002-7.013-.012-7.134-.054zM4.858 10.595c-.33-.114-.635-.42-.794-.797-.085-.201-.1-.292-.101-.578 0-.302.012-.366.116-.6a1.44 1.44 0 01.653-.704l.205-.106h14.076l.205.106c.757.39 1.01 1.377.548 2.128a1.217 1.217 0 01-.587.515l-.202.092-6.984-.002c-5.642-.002-7.013-.012-7.135-.054z" fill="#0091ff"/></svg>