<?xml version="1.0" encoding="UTF-8" standalone="no"?>
<svg
   height="24px"
   viewBox="0 0 24 24"
   width="24px"
   fill="#000000"
   version="1.1"
   id="svg1428"
   sodipodi:docname="priority_2_24dp.svg"
   inkscape:version="1.1.1 (3bf5ae0, 2021-09-20)"
   xmlns:inkscape="http://www.inkscape.org/namespaces/inkscape"
   xmlns:sodipodi="http://sodipodi.sourceforge.net/DTD/sodipodi-0.dtd"
   xmlns="http://www.w3.org/2000/svg"
   xmlns:svg="http://www.w3.org/2000/svg">
  <defs
     id="defs1432" />
  <sodipodi:namedview
     id="namedview1430"
     pagecolor="#505050"
     bordercolor="#eeeeee"
     borderopacity="1"
     inkscape:pageshadow="0"
     inkscape:pageopacity="0"
     inkscape:pagecheckerboard="0"
     showgrid="false"
     inkscape:zoom="20.517358"
     inkscape:cx="22.834324"
     inkscape:cy="15.742768"
     inkscape:window-width="1863"
     inkscape:window-height="1025"
     inkscape:window-x="57"
     inkscape:window-y="27"
     inkscape:window-maximized="1"
     inkscape:current-layer="svg1428" />
  <path
     style="color:#000000;fill:#999999;fill-opacity:1;stroke-width:0.0919748;stroke-linecap:round;stroke-linejoin:round;-inkscape-stroke:none"
     d="m 12.172712,17.774352 a 1.2747098,1.2747098 0 0 0 0.661605,-0.185206 l 6.646593,-4.037178 a 1.2745823,1.2745823 0 0 0 0.427537,-1.751107 1.2745823,1.2745823 0 0 0 -1.750928,-0.427718 L 12.172712,15.00847 6.1879033,11.373143 a 1.2745823,1.2745823 0 0 0 -1.750927,0.427718 1.2745823,1.2745823 0 0 0 0.427536,1.751107 l 6.6464147,4.037178 a 1.2747098,1.2747098 0 0 0 0.661785,0.185206 z"
     id="rect3554" />
  <path
     style="color:#000000;fill:#b3b3b3;fill-opacity:1;stroke:none;stroke-width:0.0919748;stroke-linecap:round;stroke-linejoin:round;-inkscape-stroke:none"
     d="m 12.172712,12.64005 a 1.2747098,1.2747098 0 0 0 0.661605,-0.185206 L 19.48091,8.4176679 A 1.2745823,1.2745823 0 0 0 19.908447,6.6665602 1.2745823,1.2745823 0 0 0 18.157519,6.2388432 L 12.172712,9.8741699 6.1879033,6.2388432 a 1.2745823,1.2745823 0 0 0 -1.750927,0.427717 1.2745823,1.2745823 0 0 0 0.427536,1.7511077 l 6.6464147,4.0371761 a 1.2747098,1.2747098 0 0 0 0.661785,0.185206 z"
     id="path9314" />
</svg>
